<svg width="62" height="64" viewBox="0 0 62 64" fill="none" xmlns="http://www.w3.org/2000/svg">
<path id="Union" fill-rule="evenodd" clip-rule="evenodd" d="M53.4989 9.09186L22.6315 0.804367L0.773008 22.1506L6.86559 54.6103L38.4516 63.6284L61.761 40.8654L53.4989 9.09186ZM48.8967 52.0304L60.2383 40.9547L48.0558 37.4765L36.5737 48.6895L48.8967 52.0304ZM48.0663 52.8414L38.1682 62.5075L25.9857 59.0293L35.7433 49.5004L48.0663 52.8414ZM34.623 49.1967L24.8782 58.7131L8.26576 53.9701L17.8189 44.6409L34.623 49.1967ZM17.124 43.9217L7.61907 53.2039L4.40426 36.0761L13.3329 27.3568L17.124 43.9217ZM14.1713 26.538L17.9625 43.1029L29.641 31.6982L25.6786 15.4068L25.5928 15.3843L14.1713 26.538ZM13.0714 26.2144L4.18255 34.8949L1.85458 22.4921L10.3261 14.2191L13.0714 26.2144ZM11.1646 13.4003L13.9099 25.3956L25.2992 14.2733L25.41 14.3024L22.4986 2.33194L11.1646 13.4003ZM18.6493 43.8299L35.4534 48.3857L46.9483 37.1603L30.3359 32.4173L18.6493 43.8299ZM47.0715 36.1555L30.6112 31.4559L26.778 15.6956L42.8489 19.9164L47.0715 36.1555ZM42.5604 18.8067L26.5094 14.5911L23.4623 2.06283L39.3131 6.31856L42.5604 18.8067ZM40.4239 6.6168L43.6693 19.0979L55.903 22.311L52.6776 9.90675L40.4239 6.6168ZM56.1916 23.4207L43.9579 20.2076L48.1876 36.4742L60.4999 39.9894L56.1916 23.4207Z" fill="url(#paint0_linear_75_532)"/>
<defs>
<linearGradient id="paint0_linear_75_532" x1="53.8515" y1="9.45285" x2="7.22906" y2="54.9825" gradientUnits="userSpaceOnUse">
<stop stop-color="#89F7FE"/>
<stop offset="1" stop-color="#66A6FF"/>
</linearGradient>
</defs>
</svg>
