<svg width="62" height="64" viewBox="0 0 62 64" fill="none" xmlns="http://www.w3.org/2000/svg">
<path id="Union" fill-rule="evenodd" clip-rule="evenodd" d="M52.8327 8.67137L21.9653 0.383881L0.106748 21.7301L6.19933 54.1898L37.7854 63.2079L61.0947 40.4449L52.8327 8.67137ZM48.2304 51.6099L59.572 40.5342L47.3896 37.056L35.9074 48.269L48.2304 51.6099ZM47.4 52.4209L37.5019 62.087L25.3194 58.6088L35.077 49.0799L47.4 52.4209ZM33.9567 48.7762L24.2119 58.2926L7.5995 53.5496L17.1527 44.2204L33.9567 48.7762ZM16.4578 43.5012L6.95281 52.7834L3.738 35.6557L12.6666 26.9363L16.4578 43.5012ZM13.5051 26.1175L17.2962 42.6824L28.9747 31.2777L25.0124 14.9863L24.9265 14.9638L13.5051 26.1175ZM12.4052 25.7939L3.51629 34.4744L1.18832 22.0716L9.65986 13.7986L12.4052 25.7939ZM10.4983 12.9798L13.2436 24.9751L24.6329 13.8528L24.7437 13.8819L21.8323 1.91146L10.4983 12.9798ZM17.9831 43.4094L34.7872 47.9653L46.2821 36.7398L29.6696 31.9968L17.9831 43.4094ZM46.4053 35.735L29.9449 31.0354L26.1117 15.2751L42.1826 19.4959L46.4053 35.735ZM41.8941 18.3862L25.8431 14.1706L22.796 1.64234L38.6468 5.89807L41.8941 18.3862ZM39.7576 6.19631L43.0031 18.6775L55.2368 21.8905L52.0113 9.48626L39.7576 6.19631ZM55.5253 23.0002L43.2916 19.7872L47.5214 36.0537L59.8337 39.5689L55.5253 23.0002Z" fill="url(#paint0_linear_75_533)"/>
<defs>
<linearGradient id="paint0_linear_75_533" x1="53.1852" y1="9.03236" x2="6.5628" y2="54.562" gradientUnits="userSpaceOnUse">
<stop stop-color="#89F7FE"/>
<stop offset="1" stop-color="#66A6FF"/>
</linearGradient>
</defs>
</svg>
